<svg width="63" height="49" viewBox="0 0 63 49" fill="none" xmlns="http://www.w3.org/2000/svg">
<path fill-rule="evenodd" clip-rule="evenodd" d="M24.8382 8.10302C24.812 8.07606 24.7856 8.04928 24.759 8.02266C23.2855 6.54916 21.287 5.72136 19.2032 5.72136C17.1193 5.72136 15.1208 6.54916 13.6473 8.02266C12.1738 9.49616 11.346 11.4947 11.346 13.5785C11.346 15.6623 12.1738 17.6608 13.6473 19.1343C14.6934 20.1804 16.0041 20.9011 17.4221 21.2312C16.8832 21.8728 16.5301 22.6015 16.3971 23.3685L5.70643 19.749C5.18315 19.5713 4.6099 19.4961 4.03878 19.5302C3.46765 19.5644 2.91677 19.7067 2.43621 19.9443C1.95564 20.1819 1.56063 20.5072 1.28708 20.8907C1.01353 21.2742 0.870118 21.7037 0.869873 22.1402V41.6835C0.870373 42.1196 1.01382 42.5488 1.28718 42.932C1.56055 43.3151 1.95518 43.6403 2.43527 43.8778C2.91536 44.1153 3.4657 44.2577 4.03635 44.2921C4.60699 44.3265 5.17987 44.2518 5.703 44.0747L16.3971 40.4552C16.6155 41.7147 17.4273 42.8708 18.6813 43.7082C19.9354 44.5456 21.5461 45.0072 23.2136 45.0071H27.242L30.8885 35.8904C31.0156 35.5708 31.207 35.2779 31.4493 35.0338L31.4556 35.0276L31.8619 34.6235L31.8647 34.6207L47.6684 18.8166H41.8469C42.0105 18.6723 42.1701 18.5224 42.3253 18.3672C44.2899 16.4026 45.3937 13.7379 45.3937 10.9595C45.3937 8.18099 44.2899 5.51634 42.3253 3.55167C40.3606 1.587 37.6959 0.483263 34.9175 0.483263C32.139 0.483263 29.4744 1.587 27.5097 3.55167C26.2342 4.8272 25.3215 6.39779 24.8382 8.10302ZM55.8699 31.5405L42.4023 45.0071H48.9949C50.8182 45.0071 52.5669 44.4552 53.8562 43.4729C55.1455 42.4905 55.8699 41.1582 55.8699 39.769V31.9118V31.5405ZM27.9881 18.8166H25.0595C25.5685 18.2476 25.9882 17.6116 26.3094 16.9305C26.6634 17.4408 27.0645 17.922 27.5097 18.3672C27.6649 18.5224 27.8245 18.6723 27.9881 18.8166Z" fill="black"/>
<path d="M56.1415 14.4303C55.9423 14.2311 55.6721 14.1192 55.3904 14.1192C55.1086 14.1192 54.8384 14.2311 54.6392 14.4303L51.1395 17.9302L59.0165 25.8074L62.5162 22.3097C62.6152 22.211 62.6937 22.0938 62.7472 21.9647C62.8008 21.8356 62.8284 21.6972 62.8284 21.5575C62.8284 21.4177 62.8008 21.2794 62.7472 21.1503C62.6937 21.0212 62.6152 20.9039 62.5162 20.8052L56.1415 14.4303ZM57.5142 27.3098L49.6372 19.4325L35.8253 33.2448H36.2651C36.5469 33.2448 36.8172 33.3568 37.0164 33.556C37.2156 33.7553 37.3276 34.0255 37.3276 34.3073V35.3698H38.39C38.6718 35.3698 38.9421 35.4818 39.1413 35.681C39.3406 35.8803 39.4525 36.1505 39.4525 36.4323V37.4948H40.5149C40.7967 37.4948 41.067 37.6067 41.2662 37.806C41.4655 38.0052 41.5774 38.2755 41.5774 38.5573V39.6198H42.6399C42.9216 39.6198 43.1919 39.7317 43.3911 39.931C43.5904 40.1302 43.7023 40.4005 43.7023 40.6823V41.1221L57.5142 27.3098ZM41.6454 43.1791C41.6007 43.0602 41.5777 42.9342 41.5774 42.8072V41.7447H40.5149C40.2332 41.7447 39.9629 41.6328 39.7637 41.4335C39.5644 41.2343 39.4525 40.964 39.4525 40.6823V39.6198H38.39C38.1083 39.6198 37.838 39.5078 37.6388 39.3086C37.4395 39.1093 37.3276 38.8391 37.3276 38.5573V37.4948H36.2651C35.9834 37.4948 35.7131 37.3829 35.5139 37.1836C35.3146 36.9843 35.2027 36.7141 35.2027 36.4323V35.3698H34.1402C34.0132 35.3696 33.8872 35.3466 33.7684 35.3018L33.388 35.6801C33.2868 35.782 33.2072 35.9035 33.1543 36.0371L28.9045 46.6619C28.8272 46.855 28.8083 47.0665 28.85 47.2703C28.8918 47.474 28.9925 47.661 29.1396 47.8081C29.2866 47.9551 29.4736 48.0558 29.6773 48.0976C29.8811 48.1394 30.0926 48.1204 30.2856 48.0432L40.9102 43.7932C41.0438 43.7402 41.1652 43.6607 41.2672 43.5595L41.6454 43.1791Z" fill="black"/>
</svg>